<svg version="1.1" xmlns="http://www.w3.org/2000/svg" viewBox="0 0 140.82412072389207 140.82412072389218" width="140.82412072389207" height="140.82412072389218">
  <g stroke-linecap="round" transform="translate(18.412060361946033 18.41206036194609) rotate(10.234802763423227 52 52)"><path d="M26 0 C43.26 0, 60.52 0, 78 0 C95.33 0, 104 8.67, 104 26 C104 38.06, 104 50.12, 104 78 C104 95.33, 95.33 104, 78 104 C65.57 104, 53.15 104, 26 104 C8.67 104, 0 95.33, 0 78 C0 63.2, 0 48.39, 0 26 C0 8.67, 8.67 0, 26 0" stroke="none" stroke-width="0" fill="#1e1e1e"></path><path d="M26 0 C46.51 0, 67.01 0, 78 0 M26 0 C44.54 0, 63.08 0, 78 0 M78 0 C95.33 0, 104 8.67, 104 26 M78 0 C95.33 0, 104 8.67, 104 26 M104 26 C104 37.8, 104 49.61, 104 78 M104 26 C104 38.37, 104 50.74, 104 78 M104 78 C104 95.33, 95.33 104, 78 104 M104 78 C104 95.33, 95.33 104, 78 104 M78 104 C61.65 104, 45.3 104, 26 104 M78 104 C61.81 104, 45.62 104, 26 104 M26 104 C8.67 104, 0 95.33, 0 78 M26 104 C8.67 104, 0 95.33, 0 78 M0 78 C0 63.74, 0 49.47, 0 26 M0 78 C0 64.83, 0 51.65, 0 26 M0 26 C0 8.67, 8.67 0, 26 0 M0 26 C0 8.67, 8.67 0, 26 0" stroke="#1e1e1e" stroke-width="4" fill="none"></path></g><g transform="translate(40.80372636194602 13.2120603619461) rotate(0 26.950000762939453 55.19999999999999)"><text x="0" y="88.83749999999999" font-family="Cascadia, Segoe UI Emoji" font-size="92px" fill="#ffffff" text-anchor="start" style="white-space: pre; font-family: Sans;" direction="ltr" dominant-baseline="alphabetic">H</text></g></svg>